name C:\Users\u0101727\Documents\MyRepositories\upper-imu-dc\Results\main_tracking\Case_63\kinematics.mot
datacolumns 10
datarows 56
range 3.45000000 4.00000000
endheader 
time	clav_prot	clav_elev	scapula_abduction	scapula_elevation	scapula_upward_rot	scapula_winging	plane_elv	shoulder_elv	axial_rot	
          3.45000000	        -39.97748742	         -2.18364629	          4.79805956	         -9.83608635	         76.39248592	         -5.91413914	         44.04263885	         95.44989116	        -16.73425789	
          3.46000000	        -40.02126792	         -2.23253988	          4.75333940	         -9.87174971	         76.41845245	         -5.90443321	         44.11569878	         95.39643028	        -16.71262170	
          3.47000000	        -40.06464750	         -2.28008021	          4.70712658	         -9.90662862	         76.44193054	         -5.89549006	         44.19120403	         95.34357357	        -16.69291084	
          3.48000000	        -40.10763933	         -2.32633477	          4.65925435	         -9.94078855	         76.46271415	         -5.88730343	         44.26859329	         95.29131634	        -16.67526715	
          3.49000000	        -40.15026120	         -2.37139868	          4.60956224	         -9.97431388	         76.48060861	         -5.87985205	         44.34731505	         95.23967436	        -16.65984749	
          3.50000000	        -40.19254045	         -2.41538750	          4.55789372	        -10.00730242	         76.49544026	         -5.87310477	         44.42684770	         95.18868429	        -16.64680450	
          3.51000000	        -40.23451892	         -2.45842899	          4.50409341	        -10.03985919	         76.50706550	         -5.86702650	         44.50671870	         95.13840328	        -16.63626659	
          3.52000000	        -40.27625689	         -2.50065442	          4.44800492	        -10.07208988	         76.51537881	         -5.86158406	         44.58652090	         95.08890817	        -16.62832050	
          3.53000000	        -40.31783544	         -2.54219030	          4.38947033	        -10.10409473	         76.52031908	         -5.85675134	         44.66592441	         95.04029428	        -16.62299946	
          3.54000000	        -40.35935630	         -2.58315135	          4.32833220	        -10.13596313	         76.52187378	         -5.85251299	         44.74468300	         94.99267406	        -16.62027936	
          3.55000000	        -40.40093888	         -2.62363478	          4.26443885	        -10.16776929	         76.52008041	         -5.84886630	         44.82263429	         94.94617511	        -16.62008458	
          3.56000000	        -40.44271402	         -2.66371603	          4.19765273	        -10.19956886	         76.51502487	         -5.84582118	         44.89969408	         94.90093753	        -16.62230324	
          3.57000000	        -40.48481482	         -2.70344567	          4.12786173	        -10.23139644	         76.50683683	         -5.84339840	         44.97584591	         94.85710992	        -16.62681069	
          3.58000000	        -40.52736526	         -2.74284747	          4.05499214	        -10.26326403	         76.49568213	         -5.84162638	         45.05112739	         94.81484404	        -16.63349824	
          3.59000000	        -40.57046777	         -2.78191759	          3.97902176	        -10.29516030	         76.48175289	         -5.84053714	         45.12561560	         94.77428811	        -16.64230335	
          3.60000000	        -40.61419118	         -2.82062560	          3.89999129	        -10.32705144	         76.46525590	         -5.84016137	         45.19941357	         94.73557901	        -16.65323728	
          3.61000000	        -40.65856063	         -2.85891744	          3.81801236	        -10.35888345	         76.44640038	         -5.84052332	         45.27263984	         94.69883405	        -16.66640636	
          3.62000000	        -40.70355050	         -2.89672012	          3.73327090	        -10.39058592	         76.42538603	         -5.84163603	         45.34542228	         94.66414284	        -16.68202402	
          3.63000000	        -40.74908089	         -2.93394724	          3.64602575	        -10.42207656	         76.40239234	         -5.84349733	         45.41789673	         94.63155974	        -16.70041218	
          3.64000000	        -40.79501773	         -2.97050464	          3.55660262	        -10.45326588	         76.37756994	         -5.84608737	         45.49021023	         94.60109736	        -16.72199202	
          3.65000000	        -40.84117619	         -3.00629578	          3.46538439	        -10.48406175	         76.35103424	         -5.84936737	         45.56252816	         94.57272156	        -16.74726565	
          3.66000000	        -40.88732653	         -3.04122654	          3.37279901	        -10.51437354	         76.32286161	         -5.85327972	         45.63504414	         94.54634806	        -16.77679104	
          3.67000000	        -40.93320180	         -3.07520902	          3.27930614	        -10.54411546	         76.29308796	         -5.85774915	         45.70799156	         94.52184107	        -16.81115254	
          3.68000000	        -40.97850652	         -3.10816434	          3.18538361	        -10.57320909	         76.26170958	         -5.86268483	         45.78165516	         94.49901371	        -16.85092975	
          3.69000000	        -41.02292565	         -3.14002455	          3.09151452	        -10.60158522	         76.22868544	         -5.86798303	         45.85638145	         94.47763014	        -16.89666673	
          3.70000000	        -41.06613371	         -3.17073382	          2.99817458	        -10.62918504	         76.19394045	         -5.87353017	         45.93258696	         94.45740907	        -16.94884284	
          3.71000000	        -41.10780342	         -3.20024961	          2.90582066	        -10.65596132	         76.15736903	         -5.87920585	         46.01076290	         94.43802837	        -17.00784714	
          3.72000000	        -41.14761390	         -3.22854316	          2.81488009	        -10.68187906	         76.11883883	         -5.88488593	         46.09147595	         94.41913073	        -17.07395690	
          3.73000000	        -41.18525814	         -3.25559882	          2.72574130	        -10.70691515	         76.07819488	         -5.89044613	         46.17536530	         94.40032999	        -17.14732056	
          3.74000000	        -41.22044905	         -3.28141185	          2.63874695	        -10.73105689	         76.03526433	         -5.89576587	         46.26313600	         94.38121830	        -17.22794684	
          3.75000000	        -41.25292455	         -3.30598490	          2.55418924	        -10.75429940	         75.98986196	         -5.90073228	         46.35554969	         94.36137377	        -17.31569946	
          3.76000000	        -41.28245113	         -3.32932470	          2.47230811	        -10.77664303	         75.94179635	         -5.90524356	         46.45341317	         94.34036891	        -17.41029913	
          3.77000000	        -41.30882572	         -3.35144007	          2.39329285	        -10.79809159	         75.89087629	         -5.90921057	         46.55756535	         94.31777966	        -17.51133394	
          3.78000000	        -41.33187671	         -3.37234236	          2.31728544	        -10.81865215	         75.83691714	         -5.91255678	         46.66886392	         94.29319460	        -17.61827603	
          3.79000000	        -41.35146391	         -3.39204899	          2.24438584	        -10.83833713	         75.77974671	         -5.91521574	         46.78817208	         94.26622417	        -17.73050459	
          3.80000000	        -41.36747834	         -3.41059016	          2.17465765	        -10.85716861	         75.71921035	         -5.91712674	         46.91634657	         94.23650915	        -17.84733214	
          3.81000000	        -41.37984235	         -3.42801689	          2.10813273	        -10.87518368	         75.65517526	         -5.91822976	         47.05422755	         94.20372792	        -17.96803087	
          3.82000000	        -41.38850919	         -3.44440851	          2.04481640	        -10.89243945	         75.58753449	         -5.91846059	         47.20262986	         94.16760234	        -18.09185931	
          3.83000000	        -41.39346204	         -3.45987673	          1.98469279	        -10.90901556	         75.51621064	         -5.91774760	         47.36233548	         94.12790176	        -18.21808703	
          3.84000000	        -41.39471190	         -3.47456500	          1.92773091	        -10.92501341	         75.44115930	         -5.91601088	         47.53408697	         94.08444502	        -18.34601749	
          3.85000000	        -41.39229347	         -3.48864356	          1.87389260	        -10.94055217	         75.36237166	         -5.91316303	         47.71858058	         94.03710039	        -18.47501021	
          3.86000000	        -41.38626023	         -3.50230087	          1.82314020	        -10.95576241	         75.27987569	         -5.90911183	         47.91646047	         93.98578311	        -18.60449929	
          3.87000000	        -41.37667851	         -3.51573302	          1.77544381	        -10.97077829	         75.19373523	         -5.90376394	         48.12831373	         93.93045042	        -18.73400833	
          3.88000000	        -41.36362102	         -3.52913245	          1.73078760	        -10.98572939	         75.10404698	         -5.89702889	         48.35466680	         93.87109429	        -18.86316072	
          3.89000000	        -41.34716131	         -3.54267660	          1.68917297	        -11.00073284	         75.01093507	         -5.88882376	         48.59598415	         93.80773181	        -18.99168298	
          3.90000000	        -41.32736845	         -3.55651821	          1.65061994	        -11.01588661	         74.91454379	         -5.87907721	         48.85266840	         93.74039411	        -19.11940339	
          3.91000000	        -41.30430255	         -3.57077767	          1.61516635	        -11.03126451	         74.81502854	         -5.86773279	         49.12506209	         93.66911429	        -19.24624634	
          3.92000000	        -41.27801122	         -3.58553762	          1.58286505	        -11.04691284	         74.71254586	         -5.85475144	         49.41345098	         93.59391492	        -19.37222339	
          3.93000000	        -41.24852570	         -3.60083997	          1.55378175	        -11.06284875	         74.60724296	         -5.84011244	         49.71806778	         93.51479600	        -19.49742508	
          3.94000000	        -41.21585753	         -3.61668539	          1.52799252	        -11.07906037	         74.49924731	         -5.82381303	         50.03909611	         93.43172388	        -19.62201341	
          3.95000000	        -41.17999597	         -3.63303626	          1.50558066	        -11.09550926	         74.38865650	         -5.80586649	         50.37667423	         93.34462192	        -19.74621553	
          3.96000000	        -41.14090662	         -3.64982362	          1.48663311	        -11.11213589	         74.27552872	         -5.78629797	         50.73089757	         93.25336363	        -19.87031926	
          3.97000000	        -41.09853257	         -3.66695672	          1.47123395	        -11.12886683	         74.15987477	         -5.76514013	         51.10182081	         93.15776819	        -19.99466647	
          3.98000000	        -41.05279792	         -3.68433278	          1.45945610	        -11.14562211	         74.04165249	         -5.74242928	         51.48945876	         93.05759887	        -20.11964370	
          3.99000000	        -41.00361339	         -3.70184461	          1.45135165	        -11.16232103	         73.92076469	         -5.71820357	         51.89378601	         92.95256440	        -20.24566914	
          4.00000000	        -40.95088436	         -3.71938423	          1.44694075	        -11.17888495	         73.79706124	         -5.69250426	         52.31473516	         92.84232334	        -20.37317454	
